<svg xmlns="http://www.w3.org/2000/svg" viewBox="0 0 1024 1024"><defs><style>.cls-1{fill:#f5f5f5;}</style></defs><title>white</title><g id="Layer_6" data-name="Layer 6"><rect class="cls-1" x="798.01" y="226.69" width="19.58" height="12.31" rx="3.74" transform="translate(76.29 647.16) rotate(-45.61)"/><rect class="cls-1" x="773.69" y="141.64" width="26.46" height="15.67" rx="4.76" transform="translate(129.59 607.19) rotate(-45.61)"/><rect class="cls-1" x="942.15" y="196.17" width="35.25" height="18.11" rx="5.5" transform="translate(108.95 694.49) rotate(-41.97)"/><path class="cls-1" d="M761.75,417.69l170.61-189.9-204.74,128-11.17,7L696.12,375.5l14.72-20.32,8-11.12L773.94,268l-70.35,57.9-10.17,8.38-80.17,66,58.14-87.79,7.34-11.05L762,175.77,650.34,279.06l-9.9,9.15L622.7,304.63l9.64-21.8,5.38-12.14c-3.73-2.38-7.52-4.65-11.35-6.86a317.14,317.14,0,0,0-244-30.74C213.47,280.27,114.44,456.06,161.61,625s223,267.94,391.87,220.77,267.92-223,220.74-391.88A317.4,317.4,0,0,0,761.75,417.69Zm6.69,172.84c-5.32-2.59-9.05-6.18-10.32-12.61-1-5.34-3-10.49-4.28-15.82-1.18-5.07-1.93-10.22-4.28-15.39,0,3.58.19,7.16.13,10.73-.26,14.3,1.11,28.81-4.68,42.47a14.51,14.51,0,0,1-3.6,5.45c-19.33,16.32-38.82,32.44-58.12,48.81-3.38,2.86-6.26,3.63-10.41,1.8-8.51-3.72-17.21-7-26.55-10.73,7.81,6.62,14.93,12.74,22.18,18.75,3,2.48,3.61,5,2.47,8.93-7.21,24.7-14,49.51-21.23,74.23a17.62,17.62,0,0,1-4.75,8c-13.31,11.73-26.89,23.16-40.4,34.69a8,8,0,0,0-3.05,4c6.12-3.16,12.18-6.4,18.33-9.46,8.57-4.25,17.26-8.25,25.79-12.56A26.9,26.9,0,0,1,667.31,770,305.16,305.16,0,0,1,499,842.71a70.2,70.2,0,0,1,24.65-16.52c10.05-4.07,20-8.36,30-13.36-1.83.17-3.67.31-5.49.51-13.81,1.45-27.61,2.95-41.42,4.38-4.85.5-8.51-1.33-11.94-5.06q-23.1-25.18-46.79-49.84c-3.28-3.43-4.24-6.61-2.83-11,4.24-13.14,8.36-26.34,11.95-37.68-8.28,10.09-17.84,21.57-27.2,33.19-3.23,4-7,5.77-12.26,6-20.49.85-41,2-61.42,3.42-5.4.36-9.72-.84-13.62-4.58-11.14-10.73-22.44-21.29-34.1-32.32,1,2.06,2,3.85,2.86,5.7,6,13.23,12.1,26.45,18,39.74,4.36,9.78-2.8,17.37-5.46,25.75-.32,1-3.57,1.44-5.51,1.58-3.73.28-7.5.17-11.46,1.64,5.3,1.73,10.72,3.15,15.85,5.27A140.12,140.12,0,0,1,341,808.33c11.49,6.87,22.85,14,34.21,21.42C285.55,801,210.71,731.26,178.92,636.52c1.09-4.18,3.61-8,7.07-9.85,1.13-.62,3.39,0,4.74.77,20.91,11.61,42.58,22.09,62.32,35.42,13.94,9.4,25.28,22.65,37.69,34.26,2.13,2,3.82,4.42,6.49,6.15-4-9.07-7.58-18.31-12-27.13-7.5-14.92-7.62-28.68,1.52-43.55,8.42-13.69,14.13-29,21.43-43.46a14.77,14.77,0,0,1,7.09-6.42c28.86-11.82,58.74-13.83,89.22-8.25a15.68,15.68,0,0,1,8.46,4.69c20.69,24,41,48.23,61.76,72.08,3.46,4,4.7,7.16,2.9,12-4.63,12.55-9,25.23-12.62,35.54,9.09-9.64,19.59-21.22,30.66-32.24a26.2,26.2,0,0,1,11.69-6.27c30.75-7.75,61.21-16.21,89.53-31,2.1-1.1,5.36-1.07,7.72-.36,9.1,2.73,18,6,28.53,9.52-8.16-6.33-15.37-11.4-21.91-17.27a14,14,0,0,1-4.25-9.14c-1-39.9-3-79.67-12.28-118.72a10.3,10.3,0,0,1,1.27-7c5.32-9,11-17.79,17-27.3a38.33,38.33,0,0,0-3.77,2.27c-8.17,6.17-16.14,12.62-24.56,18.44a12.12,12.12,0,0,1-8.67,1.5,310.21,310.21,0,0,0-112-6.06c-2.48.3-6.23-1.41-7.8-3.41C449,462.66,442.46,453.1,436.67,445c3,12,6.85,25.5,9.58,39.23.84,4.17-.49,9.38-2.36,13.38q-12.24,26.31-25.57,52.09c-1.68,3.22-4.93,6.61-8.24,7.87-30.7,11.77-62.56,15.51-95.3,12.92-4.6-.37-7.33-2-9.55-6.13-9.66-17.82-19.82-35.36-29.41-53.22-1.78-3.34-3-7.86-2.4-11.47,2.65-15,6.11-29.83,9.28-44.72.37-1.73.78-3.45,1.33-5.86-7.22,10.29-14.1,19.85-20.76,29.56-5.48,8-12.39,12.19-22.54,12.72-15.44.81-30.84,3-46.19,5-4.63.61-7-.66-9.22-4.67a199.62,199.62,0,0,0-13.52-21.32,8.1,8.1,0,0,1-.58-.86,306.81,306.81,0,0,1,99.67-162.79q8.6,1.88,17,4.46c1.39.41,2.66,2.86,3.07,4.59q7.46,31.56,14.53,63.22A16,16,0,0,1,305,387c-5.28,16.91-10.83,33.77-15.38,47.8,7.63-9.51,17.18-21.32,26.55-33.25,3-3.83,6.35-4.69,11.25-3.75a183.09,183.09,0,0,0,68,.44c4.37-.81,7.33.07,10.06,3.53,7,8.92,14.3,17.63,22.51,27.71-3-8.64-5.13-16-8-23.14-3.62-8.83-1.57-14.46,5.51-21.6,15.82-15.95,29.7-33.78,44.6-50.65,2-2.27,5.25-4.59,8.09-4.82,14.24-1.2,28.53-1.7,44.12-2.52-5.78-1.31-10.51-2.82-15.37-3.4-20.22-2.38-37-10-51.76-25.19-12.54-12.91-28.49-22.57-43.23-33.25-3.75-2.71-4.46-4.9-2.73-8.91,2.08-4.81,4.25-9.7,5.25-14.8a14,14,0,0,1,.53-2A304.09,304.09,0,0,1,621,275.92l-36.17,81.65L651.36,296l9.8-9.07,29.33-27.14-21.87,33-7.3,11L553.69,466.32,702.1,344.21l1.08-.9-.85,1.17-56.45,77.95,78-48.75,11.16-7h0l125.16-78.25-104.22,116-9.61,10.68c2,4.42,3.85,8.9,5.62,13.46q5.46,14,9.59,28.77A302.87,302.87,0,0,1,768.44,590.53Z"/></g></svg>